<?xml version="1.0" encoding="utf-8"?>
<!-- Generator: Adobe Illustrator 25.4.1, SVG Export Plug-In . SVG Version: 6.00 Build 0)  -->
<svg version="1.1" id="Camada_1" xmlns="http://www.w3.org/2000/svg" xmlns:xlink="http://www.w3.org/1999/xlink" x="0px" y="0px"
	 viewBox="0 0 270 210" style="enable-background:new 0 0 270 210;" xml:space="preserve">
<style type="text/css">
	.st0{fill:#262626;}
</style>
<g id="_240px" transform="translate(1364 -894)">
	<path id="Rectangle_4" d="M-1359,894h260c2.8,0,5,2.2,5,5v200c0,2.8-2.2,5-5,5h-260c-2.8,0-5-2.2-5-5V899
		C-1364,896.2-1361.8,894-1359,894z"/>
	<g id="Group_64" transform="translate(-1291 954)">
		<path id="Path_75" class="st0" d="M119.3,0H4.8C2.2,0,0,2.2,0,4.8v80.3C0,87.8,2.2,90,4.8,90h114.4c2.7,0,4.8-2.2,4.8-4.8V4.8
			C124.1,2.2,121.9,0,119.3,0z M4.8,3.5h114.4c0.7,0,1.3,0.6,1.3,1.3v69.9L93.8,48L68.5,73.2L36.1,40.8L3.5,73.4V4.8
			C3.5,4.1,4.1,3.5,4.8,3.5L4.8,3.5z"/>
		<path id="Path_76" class="st0" d="M77.9,34.8c4.5,0,8.2-3.7,8.2-8.2s-3.7-8.2-8.2-8.2c-4.5,0-8.2,3.7-8.2,8.2v0
			C69.7,31.1,73.4,34.8,77.9,34.8C77.9,34.8,77.9,34.8,77.9,34.8z"/>
	</g>
</g>
</svg>
